<?xml version="1.0" encoding="UTF-8"?>
<!DOCTYPE svg PUBLIC "-//W3C//DTD SVG 1.1//EN" "http://www.w3.org/Graphics/SVG/1.1/DTD/svg11.dtd">
<!-- Creator: CorelDRAW -->
<svg xmlns="http://www.w3.org/2000/svg" xml:space="preserve" width="2.3707mm" height="2.3707mm" version="1.1" style="shape-rendering:geometricPrecision; text-rendering:geometricPrecision; image-rendering:optimizeQuality; fill-rule:evenodd; clip-rule:evenodd"
viewBox="0 0 6.14 6.14"
 xmlns:xlink="http://www.w3.org/1999/xlink"
 xmlns:xodm="http://www.corel.com/coreldraw/odm/2003">
 <defs>
  <style type="text/css">
   <![CDATA[
    .fil0 {fill:#FEFEFE}
   ]]>
  </style>
 </defs>
 <g id="Camada_x0020_1">
  <metadata id="CorelCorpID_0Corel-Layer"/>
  <path class="fil0" d="M0.92 0l4.3 0c0.5,0 0.92,0.41 0.92,0.92l0 4.3c0,0.5 -0.41,0.92 -0.92,0.92l-1.18 0 0 -2.25 0.77 -0.01 0.11 -0.91 -0.87 -0.01 0.01 -0.51c-0,-0.29 0.15,-0.46 0.44,-0.46l0.46 0 0 -0.78c-1.27,-0.22 -1.84,0.23 -1.81,1.25l0 0.51 -0.76 0.01 -0 0.89 0.75 0 0 2.27 -2.21 0c-0.5,0 -0.92,-0.41 -0.92,-0.92l0 -4.3c0,-0.5 0.41,-0.92 0.92,-0.92z"/>
 </g>
</svg>
