<?xml version="1.0" encoding="UTF-8"?>
<!DOCTYPE svg PUBLIC "-//W3C//DTD SVG 1.1//EN" "http://www.w3.org/Graphics/SVG/1.1/DTD/svg11.dtd">
<!-- Creator: CorelDRAW -->
<svg xmlns="http://www.w3.org/2000/svg" xml:space="preserve" width="11.0074mm" height="11.0074mm" version="1.1" style="shape-rendering:geometricPrecision; text-rendering:geometricPrecision; image-rendering:optimizeQuality; fill-rule:evenodd; clip-rule:evenodd"
viewBox="0 0 247.69 247.69"
 xmlns:xlink="http://www.w3.org/1999/xlink"
 xmlns:xodm="http://www.corel.com/coreldraw/odm/2003">
 <defs>
  <style type="text/css">
   <![CDATA[
    .fil0 {fill:black}
   ]]>
  </style>
 </defs>
 <g id="Camada_x0020_1">
  <metadata id="CorelCorpID_0Corel-Layer"/>
  <path class="fil0" d="M123.84 0c68.4,0 123.84,55.45 123.84,123.84 0,68.4 -55.45,123.84 -123.84,123.84 -68.4,0 -123.84,-55.45 -123.84,-123.84 0,-68.4 55.45,-123.84 123.84,-123.84zm-86.14 76.79l4.58 0 0 52.57 -4.58 0 0 -52.57zm9.16 0l4.58 0 0 52.57 -4.58 0 0 -52.57zm27.5 0l4.58 0 0 52.57 -4.58 0 0 -52.57zm89.16 0l4.58 0 0 52.57 -4.58 0 0 -52.57zm29.81 0l4.58 0 0 52.57 -4.58 0 0 -52.57zm-88.72 0l4.58 0 0 52.57 -4.58 0 0 -52.57zm-45.83 0l8.25 0 0 52.57 -8.25 0 0 -52.57zm54.43 0l8.25 0 0 52.57 -8.25 0 0 -52.57zm38.22 0l8.24 0 0 52.57 -8.24 0 0 -52.57zm19.57 0l8.25 0 0 52.57 -8.25 0 0 -52.57zm30.75 0l8.24 0 0 52.57 -8.24 0 0 -52.57zm-118.22 0l16.49 0 0 52.57 -16.49 0 0 -52.57zm42.75 0l12.83 0 0 52.57 -12.83 0 0 -52.57zm-88.73 93.6l0 -30.09 11.29 0c0.18,-0.01 0.36,-0.01 0.54,-0.01 1.71,0 3.4,0.32 4.99,0.92 1.35,0.58 2.49,1.56 3.26,2.81 0.76,1.18 1.17,2.57 1.18,3.97 0,-0 0,0 0,0 0,1.28 -0.36,2.54 -1.05,3.63 -0.77,1.2 -1.87,2.15 -3.16,2.75 1.66,0.43 3.14,1.39 4.2,2.73 0.95,1.27 1.47,2.81 1.47,4.39 0,0.05 0,0.11 0,0.16 0,0.02 0,0.05 0,0.07 0,1.33 -0.31,2.66 -0.89,3.85 -0.5,1.1 -1.26,2.06 -2.21,2.81 -0.99,0.71 -2.11,1.22 -3.3,1.49 -1.46,0.34 -2.97,0.51 -4.48,0.51 -0.12,0 -0.25,-0 -0.37,-0l-11.48 -0zm3.99 -17.45l6.51 0c0.19,0.01 0.38,0.01 0.57,0.01 1.08,0 2.16,-0.12 3.21,-0.36 0.91,-0.23 1.71,-0.76 2.29,-1.5 0.5,-0.72 0.77,-1.58 0.77,-2.46 0,-0.05 -0,-0.11 -0,-0.16 0,-0.03 0,-0.07 0,-0.1 0,-0.9 -0.25,-1.78 -0.72,-2.54 -0.46,-0.75 -1.19,-1.31 -2.03,-1.56 -1.26,-0.29 -2.55,-0.43 -3.84,-0.43 -0.25,0 -0.49,0 -0.74,0.02l-6.02 0 0 9.09zm0 13.9l7.49 0c0.15,0 0.3,0.01 0.45,0.01 0.76,0 1.51,-0.05 2.26,-0.15 0.81,-0.13 1.6,-0.42 2.3,-0.84 0.65,-0.42 1.17,-1 1.52,-1.68 0.39,-0.75 0.6,-1.58 0.6,-2.43 0,-0.03 0,-0.06 0,-0.09 0,-0.04 0,-0.09 0,-0.13 0,-1 -0.3,-1.98 -0.86,-2.81 -0.58,-0.83 -1.42,-1.45 -2.39,-1.75 -1.26,-0.34 -2.56,-0.51 -3.87,-0.51 -0.18,0 -0.36,0 -0.53,0.01l-6.96 0 0 10.38zm24.56 -11.1c-0.02,-0.32 -0.03,-0.64 -0.03,-0.96 0,-3.96 1.44,-7.79 4.05,-10.77 2.58,-2.71 6.16,-4.25 9.91,-4.25 0.16,0 0.32,0 0.48,0.01 0.06,0 0.13,-0 0.2,-0 2.57,0 5.1,0.69 7.31,1.99 2.21,1.31 3.99,3.24 5.1,5.55 1.16,2.42 1.76,5.08 1.76,7.76 0,0.1 -0,0.21 -0,0.32 0,0.1 0,0.2 0,0.31 0,2.73 -0.63,5.43 -1.85,7.88 -1.14,2.31 -2.97,4.22 -5.23,5.46 -2.21,1.22 -4.7,1.86 -7.22,1.86 -0.03,0 -0.06,0 -0.09,0 -0.08,0 -0.16,0 -0.24,0 -2.59,0 -5.14,-0.71 -7.36,-2.05 -2.2,-1.33 -3.97,-3.29 -5.07,-5.61 -1.13,-2.32 -1.72,-4.87 -1.72,-7.46 0,-0.02 0,-0.04 0,-0.05l0 0zm4.11 0.06c-0.01,0.22 -0.02,0.44 -0.02,0.66 0,2.91 1.05,5.72 2.96,7.91 1.82,2 4.4,3.13 7.11,3.13 0.08,0 0.16,0 0.23,-0 0.08,0 0.16,0 0.24,0 2.72,0 5.31,-1.15 7.13,-3.17 1.89,-2.29 2.93,-5.17 2.93,-8.14 0,-0.27 -0.01,-0.56 -0.03,-0.83 0,-0.12 0.01,-0.26 0.01,-0.38 0,-2.07 -0.42,-4.12 -1.23,-6.03 -0.76,-1.74 -2.02,-3.23 -3.63,-4.25 -1.57,-0.99 -3.39,-1.51 -5.24,-1.51 -0.04,0 -0.09,0 -0.13,0 -0.05,0 -0.1,0 -0.16,0 -2.66,0 -5.22,1.04 -7.12,2.91 -2.01,2.35 -3.12,5.35 -3.12,8.44 0,0.42 0.02,0.84 0.06,1.26l-0 0zm31.2 14.59l0 -30.09 3.98 0 0 26.54 14.82 0 0 3.55 -18.8 0zm25.18 0l0 -30.09 21.76 0 0 3.55 -17.78 0 0 9.21 16.65 0 0 3.53 -16.65 0 0 10.24 18.48 0 0 3.55 -22.46 0zm37.17 0l0 -26.54 -9.92 0 0 -3.55 23.85 0 0 3.55 -9.95 0 0 26.54 -3.98 0zm17.61 -14.65c-0.02,-0.31 -0.03,-0.63 -0.03,-0.95 0,-3.97 1.44,-7.8 4.06,-10.78 2.58,-2.71 6.16,-4.25 9.91,-4.25 0.16,0 0.32,0 0.48,0.01 0.06,0 0.13,-0 0.2,-0 2.57,0 5.1,0.69 7.31,1.99 2.21,1.31 3.99,3.24 5.1,5.55 1.16,2.42 1.76,5.08 1.76,7.76 0,0.1 -0,0.21 -0,0.32 0,0.1 0,0.2 0,0.31 0,2.73 -0.63,5.43 -1.85,7.88 -1.15,2.32 -2.98,4.23 -5.25,5.47 -2.21,1.22 -4.69,1.86 -7.22,1.86 -0.03,0 -0.06,0 -0.09,0 -0.07,0 -0.16,0 -0.23,0 -2.6,0 -5.14,-0.71 -7.36,-2.05 -2.19,-1.33 -3.96,-3.29 -5.06,-5.61 -1.13,-2.32 -1.72,-4.87 -1.72,-7.45 0,-0.02 0,-0.04 0,-0.05l0 0zm4.11 0.06c-0.01,0.22 -0.02,0.44 -0.02,0.66 0,2.91 1.05,5.72 2.96,7.91 1.82,2 4.4,3.13 7.11,3.13 0.08,0 0.16,0 0.23,-0 0.09,0 0.18,0 0.27,0 2.72,0 5.31,-1.15 7.13,-3.17 1.89,-2.29 2.93,-5.17 2.93,-8.14 0,-0.28 -0.01,-0.56 -0.03,-0.83 0,-0.1 0,-0.2 0,-0.3 0,-2.1 -0.43,-4.18 -1.26,-6.11 -0.76,-1.75 -2.03,-3.23 -3.63,-4.25 -1.57,-0.99 -3.39,-1.51 -5.24,-1.51 -0.04,0 -0.09,0 -0.13,0 -0.05,0 -0.1,0 -0.16,0 -2.66,0 -5.22,1.04 -7.12,2.91 -2.01,2.35 -3.11,5.34 -3.11,8.43 0,0.42 0.02,0.84 0.06,1.26l0 0z"/>
 </g>
</svg>
