<?xml version="1.0" encoding="UTF-8"?>
<!DOCTYPE svg PUBLIC "-//W3C//DTD SVG 1.1//EN" "http://www.w3.org/Graphics/SVG/1.1/DTD/svg11.dtd">
<!-- Creator: CorelDRAW -->
<svg xmlns="http://www.w3.org/2000/svg" xml:space="preserve" width="4.5682mm" height="4.5682mm" version="1.1" style="shape-rendering:geometricPrecision; text-rendering:geometricPrecision; image-rendering:optimizeQuality; fill-rule:evenodd; clip-rule:evenodd"
viewBox="0 0 21.62 21.62"
 xmlns:xlink="http://www.w3.org/1999/xlink"
 xmlns:xodm="http://www.corel.com/coreldraw/odm/2003">
 <defs>
  <style type="text/css">
   <![CDATA[
    .fil0 {fill:black}
    .fil1 {fill:white}
   ]]>
  </style>
 </defs>
 <g id="Camada_x0020_1">
  <metadata id="CorelCorpID_0Corel-Layer"/>
  <g id="_2523956330176">
   <circle class="fil0" cx="10.81" cy="10.81" r="10.81"/>
   <g>
    <path class="fil1" d="M6.46 6.95c0.16,0.08 0.45,0.01 0.65,0.03 0.07,0.01 0.11,0.04 0.19,0.04 0.05,0 0.06,-0 0.11,0.01 0.06,0.02 0.02,0.02 0.08,0.03 0.04,0.01 0.05,0 0.09,0.02 0.08,0.03 0.17,0.06 0.25,0.1l0.15 0.08c0.02,0.01 0.01,0 0.03,0.01 0.02,0.01 0.01,0.01 0.03,0.02 0.03,0.02 0.04,0.02 0.07,0.05l0.16 0.13c0.02,0.02 0.01,0.01 0.03,0.03l0.54 0.53c0,0 0.01,0 0.01,0.01 0.01,0.01 0.02,0.01 0.03,0.03l0.19 0.2c0.02,0.02 0.01,0.01 0.03,0.03l0.17 0.17c0.04,0.04 0.07,0.07 0.11,0.12l0.59 0.6c0,0 0.01,0.01 0.01,0.01l0.22 0.22c0,0 0,0.01 0.01,0.01l0.29 0.29c0.01,0.01 0.02,0.02 0.03,0.03 0,0 0.01,0.01 0.01,0.01l0.18 0.15c0.09,0.05 0.21,0.03 0.31,0.03 0.04,0 0.11,-0.05 0.14,-0.07l0.33 -0.33c0.01,-0.01 0.01,-0.01 0.02,-0.02l0.31 -0.31c0.01,-0.01 0.02,-0.02 0.03,-0.03 0,-0 0.01,-0.01 0.01,-0.01l0.24 -0.24c0.01,-0.01 0.02,-0.02 0.03,-0.03l0.12 -0.11c0,-0 0,-0.01 0.01,-0.01 0,-0 0,-0.01 0.01,-0.01l0.09 -0.09c0.01,-0.01 0.02,-0.02 0.03,-0.03 0,-0 0.01,-0.01 0.01,-0.01l0.16 -0.16c0.01,-0.01 0.02,-0.01 0.03,-0.03l0.07 -0.07c0,-0 0.01,-0.01 0.01,-0.01l0.08 -0.08c0,-0 0.01,-0.01 0.01,-0.01l0.49 -0.49c0,-0 0,-0.01 0.01,-0.01l0.14 -0.14c0.01,-0.01 0.02,-0.01 0.03,-0.03l0.03 -0.03c0.26,-0.26 0.32,-0.24 0.52,-0.36 0.11,-0.07 0.24,-0.1 0.37,-0.13 0.05,-0.01 0.01,-0 0.04,-0.01 0.1,-0.04 0.08,-0.02 0.19,-0.03l0.19 -0.04c0.11,-0.01 0.32,0.03 0.41,-0.03 -0.01,-0.05 -0.05,-0.07 -0.09,-0.11l-0.14 -0.14c-0,-0 -0.01,-0.01 -0.01,-0.01 -0,-0 -0,-0.01 -0.01,-0.01 -0,-0 -0.01,-0.01 -0.01,-0.02l-0.22 -0.22c-0,-0 -0.01,-0.01 -0.01,-0.01 -0,-0 -0,-0.01 -0.01,-0.01l-0.08 -0.08c-0,-0 -0,-0.01 -0.01,-0.01l-0.14 -0.14c-0,-0 -0.01,-0.01 -0.01,-0.01l-0.01 -0.01c-0.01,-0.01 -0.02,-0.02 -0.03,-0.03 -0,-0 -0.01,-0.01 -0.01,-0.01l-1.12 -1.12c-0.02,-0.01 -0.02,-0.02 -0.04,-0.03l-0.37 -0.37c-0.02,-0.02 -0.03,-0.04 -0.06,-0.06l-0.1 -0.1c-0,-0 -0,-0.01 -0.01,-0.01l-0.01 -0.01c-0.01,-0.01 -0.02,-0.02 -0.03,-0.03 -0.02,-0.01 -0.02,-0.02 -0.04,-0.03l-0.4 -0.38c-0,-0 -0.01,-0 -0.01,-0.01l-0.08 -0.06c-0,-0 -0.01,-0 -0.01,-0.01 -0.11,-0.08 -0.29,-0.2 -0.43,-0.25 -0.02,-0.01 -0.03,-0.01 -0.05,-0.02l-0.18 -0.07c-0.04,-0.02 0.01,-0 -0.04,-0.02l-0.15 -0.03c-0.18,-0.06 -0.73,-0.06 -0.91,-0.01 -0.06,0.02 -0.02,0.01 -0.08,0.03 -0.03,0.01 -0.08,0.01 -0.11,0.02 -0.04,0.01 -0.02,0.02 -0.08,0.03l-0.29 0.12c-0,0 -0.01,0 -0.01,0.01l-0.13 0.07c-0.03,0.02 -0.04,0.03 -0.07,0.04l-0.08 0.06c-0,0 -0.01,0 -0.01,0.01l-0.07 0.05c-0,0 -0.01,0 -0.01,0.01l-0.05 0.04c-0.32,0.27 -0.69,0.67 -0.99,0.97l-1.71 1.71c-0.06,0.07 -0.2,0.17 -0.23,0.26z"/>
    <path class="fil1" d="M6.46 14.69c0.02,0.07 0.4,0.42 0.46,0.48 0.16,0.16 0.31,0.31 0.47,0.47l1.4 1.4c0.04,0.04 0.07,0.07 0.11,0.12l0.54 0.51c0.02,0.02 0.04,0.03 0.06,0.05 0.12,0.09 0.24,0.16 0.37,0.22l0.12 0.05c0.11,0.03 0.21,0.08 0.32,0.1 0.09,0.01 0.11,0.04 0.2,0.04l0.62 0c0.09,0 0.09,-0.03 0.17,-0.04 0.05,-0.01 0.07,-0 0.1,-0.01l0.13 -0.04c0.04,-0.01 0.02,-0 0.04,-0.01l0.42 -0.21c0,-0 0.01,-0 0.01,-0.01 0,-0 0.01,-0 0.01,-0.01l0.33 -0.25c0.03,-0.03 0.02,-0.02 0.05,-0.05l0.15 -0.14c0.01,-0.01 0.02,-0.02 0.03,-0.03l0.94 -0.94c0,-0 0.01,-0.01 0.01,-0.01l0.62 -0.62c0,-0 0.01,-0.01 0.01,-0.01 0,-0 0.01,-0.01 0.01,-0.01l0.93 -0.92c0.15,-0.15 0.08,-0.15 -0.14,-0.15 -0.18,0 -0.27,-0.02 -0.43,-0.03l-0.27 -0.07c-0.04,-0.02 -0.05,-0.02 -0.09,-0.03l-0.13 -0.05c-0,-0 -0.01,-0 -0.01,-0l-0.38 -0.23c-0,-0 -0.01,-0 -0.01,-0.01l-0.2 -0.16c-0,-0 -0.01,-0 -0.01,-0.01l-0.3 -0.3c-0,-0 -0.01,-0.01 -0.01,-0.01l-1.17 -1.17c-0,-0 -0.01,-0.01 -0.01,-0.01l-0.83 -0.8c-0.08,-0.04 -0.31,-0.05 -0.39,-0.01 -0,0 -0.03,0.02 -0.04,0.02 -0,0 -0.01,0.01 -0.02,0.01 -0,0 -0.01,0 -0.01,0.01 -0,0 -0.01,0 -0.01,0.01 -0,0 -0.01,0 -0.01,0.01l-0.14 0.13c-0,0 -0.01,0.01 -0.01,0.01 -0,0 -0.01,0.01 -0.01,0.01l-0.18 0.18c-0.02,0.02 -0.03,0.03 -0.05,0.05 -0,0 -0.01,0 -0.01,0.01l-0.08 0.08c-0,0 -0.01,0.01 -0.01,0.01 -0,0 -0.01,0.01 -0.01,0.01 -0,0 -0.01,0 -0.01,0.01l-0.06 0.07c-0.02,0.02 -0.03,0.04 -0.06,0.06 -0,0 -0.01,0.01 -0.02,0.01l-0.24 0.24c-0,0 -0.01,0 -0.01,0.01 -0,0 -0.01,0 -0.01,0.01l-1.38 1.39c-0.04,0.04 -0.08,0.07 -0.12,0.11l-0.06 0.05c-0,0 -0.01,0 -0.01,0.01l-0.25 0.16c-0.08,0.05 0.06,-0.03 -0.02,0.01 -0.01,0.01 -0.03,0.01 -0.04,0.02l-0.03 0.01c-0,0 -0.01,0 -0.01,0.01 -0.18,0.1 -0.33,0.11 -0.42,0.15 -0.06,0.02 -0.01,0.02 -0.09,0.02 -0.15,0.01 -0.24,0.04 -0.42,0.04 -0.14,-0 -0.33,-0.02 -0.43,0.03z"/>
    <path class="fil1" d="M3.5 10.61c0,0.19 -0.02,0.41 0.01,0.59 0.01,0.06 0.03,0.07 0.04,0.13l0.18 0.5c0.07,0.13 0.15,0.27 0.25,0.39 0.37,0.43 0.79,0.81 1.2,1.21 0.04,0.04 0.64,0.66 0.69,0.66 0.05,0 0.09,-0.03 0.21,-0.03 0.18,0 1,0.02 1.11,-0.01 0.06,-0.01 0.06,-0.02 0.1,-0.03 0.12,-0.03 0.17,-0.04 0.28,-0.1l0.23 -0.14c0.05,-0.04 0.09,-0.06 0.14,-0.1l0.17 -0.16c0,-0 0.01,-0.01 0.02,-0.02l0.09 -0.09c0,-0 0.01,-0 0.01,-0.01 0,-0 0.01,-0 0.01,-0.01 0,-0 0.01,-0 0.01,-0.01l0.05 -0.05c0.01,-0.01 0.01,-0.01 0.02,-0.02l1 -1c0,-0 0.01,-0 0.01,-0.01l0.06 -0.06c0.02,-0.02 0.01,-0.01 0.03,-0.03l0.16 -0.16c0.02,-0.01 0.02,-0.02 0.03,-0.03l0.04 -0.04c0.01,-0.01 0.02,-0.02 0.03,-0.03 0,-0 0.01,-0.01 0.01,-0.01l0.21 -0.22c0.02,-0.02 0.01,-0.01 0.03,-0.03l0.09 -0.1c0.01,-0.01 0.01,-0.01 0.03,-0.03 0,-0 0.01,-0 0.01,-0.01l0.12 -0.12c0.02,-0.02 0.02,-0.02 0.04,-0.04l0.15 -0.12c0,-0 0.01,-0 0.01,-0.01l0.22 -0.11c0.06,-0.03 0.27,-0.06 0.33,-0.06 0.05,0 0.13,0.02 0.17,0.03 0.16,0.03 0.09,0.01 0.25,0.07 0.09,0.04 0.18,0.1 0.25,0.16 0.01,0.01 0.02,0.01 0.02,0.02l0.17 0.17c0,0 0.01,0.01 0.01,0.01l0.1 0.1c0,0 0.01,0 0.01,0.01l1.1 1.1c0,0 0.01,0 0.01,0.01l0.21 0.21c0.01,0.01 0.02,0.02 0.02,0.02l0.59 0.59c0,0 0.01,0.01 0.01,0.01l0.36 0.27c0.03,0.02 0.04,0.02 0.07,0.03l0.36 0.12c0.18,0.06 0.66,0.01 0.88,0.01 0.06,0 0.15,-0.01 0.2,0 0.08,0.01 0.05,0.04 0.11,0.01 0.03,-0.01 0.02,-0.01 0.04,-0.02l0.42 -0.42c0.03,-0.03 0.02,-0.02 0.05,-0.05l0.9 -0.9c0,-0 0.01,-0.01 0.01,-0.01l0.04 -0.03c0.02,-0.02 0.03,-0.03 0.06,-0.06l0.26 -0.26c0.01,-0.01 0.01,-0.01 0.03,-0.03l0.04 -0.06c0,-0 0,-0.01 0.01,-0.01 0,-0 0,-0.01 0.01,-0.01l0.09 -0.12c0,-0 0,-0.01 0.01,-0.01l0.19 -0.34c0.02,-0.04 0.02,-0.02 0.03,-0.07l0.09 -0.23c0.01,-0.03 0.01,-0.04 0.02,-0.08 0.01,-0.07 -0,-0.03 0.02,-0.09 0.03,-0.07 0.01,-0.11 0.02,-0.2 0,-0.08 0.03,-0.1 0.03,-0.19l0 -0.2c0,-0.06 -0.03,-0.05 -0.03,-0.14 -0,-0.06 0.01,-0.11 -0.01,-0.16 -0.02,-0.07 -0.02,-0.04 -0.04,-0.14l-0.09 -0.26c-0.01,-0.03 -0.01,-0.04 -0.02,-0.06l-0.15 -0.28c-0.08,-0.14 -0.19,-0.27 -0.3,-0.39l-0.78 -0.77c-0,-0 -0,-0.01 -0.01,-0.01l-0.12 -0.12c-0.01,-0.01 -0.01,-0.01 -0.02,-0.02l-0.1 -0.1c-0,-0 -0,-0.01 -0.01,-0.01l-0.09 -0.08c-0.02,-0.02 -0.03,-0.03 -0.04,-0.05l-0.36 -0.36c-0,-0 -0.01,-0.01 -0.01,-0.01l-0.15 -0.15c-0.03,-0.02 -0.02,-0.02 -0.04,-0.05 -0.12,0.06 -0.3,0.04 -0.44,0.04 -0.14,0 -0.62,-0.02 -0.74,0.01 -0.06,0.02 -0.03,0.02 -0.08,0.03l-0.15 0.04c-0.03,0.01 0,0 -0.04,0.02 -0.06,0.02 -0.04,0.01 -0.09,0.04l-0.49 0.37c-0.01,0.01 -0.02,0.02 -0.03,0.03l-0.37 0.36c-0,0 -0.01,0 -0.01,0.01l-0.23 0.23c-0,0 -0.01,0.01 -0.01,0.01l-0.24 0.24c-0,0 -0.01,0 -0.01,0.01l-0.15 0.15c0,0 -0.02,0.02 -0.02,0.02 -0.04,0.05 -0.08,0.08 -0.13,0.13l-0.9 0.91c-0.07,0.07 -0.15,0.13 -0.23,0.18 -0.03,0.02 -0.06,0.04 -0.08,0.05 -0.1,0.05 -0.17,0.06 -0.29,0.08 -0.09,0.02 -0.12,0.04 -0.2,0.02 -0.1,-0.03 -0.21,-0.03 -0.29,-0.07l-0.17 -0.08c-0.14,-0.09 -0.24,-0.2 -0.35,-0.32l-0.48 -0.48c-0,-0 -0.01,-0.01 -0.01,-0.01l-0.05 -0.04c-0.01,-0.01 -0.02,-0.02 -0.03,-0.03l-0.13 -0.14c-0,-0 -0.02,-0.02 -0.02,-0.02 -0,-0 -0.01,-0 -0.01,-0.01l-0.43 -0.43c-0,-0 -0.01,-0.01 -0.01,-0.02l-0.09 -0.09c-0,-0 -0,-0.01 -0.01,-0.01l-0.16 -0.17c-0,-0 -0,-0 -0.01,-0.01l-0.25 -0.25c-0,-0 -0.01,-0.01 -0.01,-0.01l-0.29 -0.29c-0,-0 -0.01,-0.01 -0.01,-0.01l-0.33 -0.26 -0.21 -0.1c-0.25,-0.1 -0.35,-0.11 -0.64,-0.11 -0.14,0 -0.75,0.02 -0.87,-0 -0.08,-0.01 -0.08,-0.05 -0.15,0l-0.04 0.04c-0.01,0.01 -0.01,0.01 -0.02,0.02 -0.01,0.01 -0.02,0.02 -0.02,0.02l-0.08 0.08c-0,0 -0,0.01 -0.01,0.01l-0.72 0.72c-0,0 -0,0.01 -0.01,0.01l-0.24 0.24c-0,0 -0,0.01 -0.01,0.01 -0.03,0.03 -0.05,0.06 -0.08,0.09 -0.03,0.03 -0.06,0.05 -0.09,0.09 -0.02,0.02 -0.01,0.01 -0.04,0.04l-0.07 0.07c-0,0 -0.01,0.01 -0.01,0.01 -0.02,0.02 -0.02,0.02 -0.04,0.04l-0.24 0.24c-0.1,0.1 -0.19,0.23 -0.26,0.35 -0.08,0.13 -0.12,0.26 -0.19,0.4l-0.11 0.4c-0.01,0.05 -0.01,0.09 -0.01,0.16z"/>
   </g>
  </g>
 </g>
</svg>
