<?xml version="1.0" encoding="UTF-8"?>
<!DOCTYPE svg PUBLIC "-//W3C//DTD SVG 1.1//EN" "http://www.w3.org/Graphics/SVG/1.1/DTD/svg11.dtd">
<!-- Creator: CorelDRAW -->
<svg xmlns="http://www.w3.org/2000/svg" xml:space="preserve" width="4.5682mm" height="4.5682mm" version="1.1" style="shape-rendering:geometricPrecision; text-rendering:geometricPrecision; image-rendering:optimizeQuality; fill-rule:evenodd; clip-rule:evenodd"
viewBox="0 0 27.25 27.25"
 xmlns:xlink="http://www.w3.org/1999/xlink"
 xmlns:xodm="http://www.corel.com/coreldraw/odm/2003">
 <defs>
  <style type="text/css">
   <![CDATA[
    .fil0 {fill:black}
    .fil2 {fill:#E6E6E6;fill-rule:nonzero}
    .fil1 {fill:white;fill-rule:nonzero}
   ]]>
  </style>
 </defs>
 <g id="Camada_x0020_1">
  <metadata id="CorelCorpID_0Corel-Layer"/>
  <g id="_2523680314496">
   <circle class="fil0" cx="13.63" cy="13.63" r="13.63"/>
   <g>
    <polygon class="fil1" points="12.16,17.08 10.36,17.08 11.48,10.17 13.28,10.17 "/>
    <path class="fil1" d="M8.85 10.17l-1.72 4.75 -0.2 -1.02 0 0 -0.6 -3.11c0,0 -0.07,-0.62 -0.85,-0.62l-2.83 0 -0.03 0.12c0,0 0.87,0.18 1.88,0.79l1.56 6 1.87 0 2.86 -6.91 -1.94 0z"/>
    <path class="fil1" d="M23 17.08l1.65 0 -1.44 -6.91 -1.45 0c-0.67,0 -0.83,0.51 -0.83,0.51l-2.68 6.39 1.87 0 0.37 -1.03 2.29 0 0.21 1.03zm-1.98 -2.44l0.94 -2.59 0.53 2.59 -1.48 0z"/>
    <path class="fil1" d="M18.39 11.84l0.26 -1.48c0,0 -0.79,-0.3 -1.62,-0.3 -0.89,0 -3.01,0.39 -3.01,2.29 0,1.79 2.49,1.81 2.49,2.74 0,0.94 -2.23,0.77 -2.97,0.18l-0.27 1.55c0,0 0.8,0.39 2.03,0.39 1.23,0 3.08,-0.63 3.08,-2.37 0,-1.8 -2.51,-1.96 -2.51,-2.74 0,-0.78 1.75,-0.68 2.52,-0.26z"/>
    <path class="fil2" d="M6.93 13.9l-0.61 -3.11c0,0 -0.07,-0.62 -0.85,-0.62l-2.83 0 -0.03 0.12c0,0 1.36,0.28 2.67,1.34 1.25,1.01 1.66,2.27 1.66,2.27z"/>
   </g>
  </g>
 </g>
</svg>
